<!DOCTYPE svg PUBLIC "-//W3C//DTD SVG 1.1//EN" "http://www.w3.org/Graphics/SVG/1.1/DTD/svg11.dtd">
<!-- Uploaded to: SVG Repo, www.svgrepo.com, Transformed by: SVG Repo Mixer Tools -->
<svg fill="#ffffff" height="800px" width="800px" version="1.1" id="Layer_1" xmlns="http://www.w3.org/2000/svg" xmlns:xlink="http://www.w3.org/1999/xlink" viewBox="0 0 512 512" xml:space="preserve" style="--darkreader-inline-fill: #181a1b;" data-darkreader-inline-fill="">
<g id="SVGRepo_bgCarrier" stroke-width="0"/>
<g id="SVGRepo_tracerCarrier" stroke-linecap="round" stroke-linejoin="round"/>
<g id="SVGRepo_iconCarrier"> <g> <g> <path d="M480.704,64H31.296C14.032,64,0,78.032,0,95.28v321.44C0,433.968,14.032,448,31.296,448h449.408 C497.968,448,512,433.968,512,416.72V95.28C512,78.032,497.968,64,480.704,64z M480,416l-448,0.72L31.296,96L480,95.28V416z"/> </g> </g> <g> <g> <path d="M496,368H16c-8.832,0-16,7.168-16,16c0,8.832,7.168,16,16,16h480c8.832,0,16-7.168,16-16C512,375.168,504.832,368,496,368 z"/> </g> </g> <g> <g> <path d="M288,384h-64c-8.832,0-16,7.168-16,16c0,8.832,7.168,16,16,16h64c8.832,0,16-7.168,16-16C304,391.168,296.832,384,288,384 z"/> </g> </g> </g>
</svg>